<svg xmlns="http://www.w3.org/2000/svg" xmlns:xlink="http://www.w3.org/1999/xlink" width="1920" zoomAndPan="magnify" viewBox="0 0 1440 809.999993" height="1080" preserveAspectRatio="xMidYMid meet" version="1.0"><defs><g/><clipPath id="534dc9af0c"><path d="M 75 0 L 1365 0 C 1406.421875 0 1440 33.578125 1440 75 L 1440 735 C 1440 776.421875 1406.421875 810 1365 810 L 75 810 C 33.578125 810 0 776.421875 0 735 L 0 75 C 0 33.578125 33.578125 0 75 0 Z M 75 0 " clip-rule="nonzero"/></clipPath></defs><g clip-path="url(#534dc9af0c)"><path stroke-linecap="butt" transform="matrix(0.75, 0, 0, 0.75, 0.0000126595, 0.00002)" fill="none" stroke-linejoin="miter" d="M 99.999988 -0.0000266667 L 1820.000075 -0.0000266667 C 1875.229244 -0.0000266667 1920.00008 44.770809 1920.00008 99.999978 L 1920.00008 980.000023 C 1920.00008 1035.229192 1875.229244 1080.000028 1820.000075 1080.000028 L 99.999988 1080.000028 C 44.770819 1080.000028 -0.0000168794 1035.229192 -0.0000168794 980.000023 L -0.0000168794 99.999978 C -0.0000168794 44.770809 44.770819 -0.0000266667 99.999988 -0.0000266667 Z M 99.999988 -0.0000266667 " stroke="#0faff0" stroke-width="60" stroke-opacity="1" stroke-miterlimit="4"/></g><g fill="#ffffff" fill-opacity="1"><g transform="translate(106.318359, 336.566158)"><g><path d="M 167.046875 -109.796875 C 167.046875 -121.253906 163.988281 -130.289062 157.875 -136.90625 C 151.769531 -143.519531 143.425781 -146.828125 132.84375 -146.828125 C 127.175781 -146.828125 122.007812 -145.785156 117.34375 -143.703125 C 112.6875 -141.628906 108.6875 -138.796875 105.34375 -135.203125 C 102.007812 -131.617188 99.332031 -127.273438 97.3125 -122.171875 C 95.300781 -117.066406 94.109375 -111.488281 93.734375 -105.4375 L 93.734375 0 L 25.328125 0 L 25.328125 -204.28125 L 93.734375 -204.28125 L 93.734375 -171.390625 C 100.910156 -183.234375 110.164062 -192.144531 121.5 -198.125 C 132.84375 -204.113281 146.007812 -207.109375 161 -207.109375 C 172.207031 -207.109375 182.378906 -205.28125 191.515625 -201.625 C 200.648438 -197.976562 208.492188 -192.785156 215.046875 -186.046875 C 221.597656 -179.304688 226.632812 -171.113281 230.15625 -161.46875 C 233.6875 -151.832031 235.453125 -141.03125 235.453125 -129.0625 L 235.453125 0 L 167.046875 0 Z M 167.046875 -109.796875 "/></g></g></g><g fill="#ffffff" fill-opacity="1"><g transform="translate(357.460039, 336.566158)"><g><path d="M -2.078125 -204.28125 L 67.46875 -204.28125 L 108.09375 -66.140625 L 147.390625 -204.28125 L 212.40625 -204.28125 L 252.65625 -66.140625 L 292.71875 -204.28125 L 359.609375 -204.28125 L 284.96875 0 L 216.9375 0 L 178.953125 -126.046875 L 140.21875 0 L 72.375 0 Z M -2.078125 -204.28125 "/></g></g></g><g fill="#ffffff" fill-opacity="1"><g transform="translate(714.047161, 336.566158)"><g><path d="M 167.046875 -109.796875 C 167.046875 -121.253906 163.988281 -130.289062 157.875 -136.90625 C 151.769531 -143.519531 143.425781 -146.828125 132.84375 -146.828125 C 127.175781 -146.828125 122.007812 -145.785156 117.34375 -143.703125 C 112.6875 -141.628906 108.6875 -138.796875 105.34375 -135.203125 C 102.007812 -131.617188 99.332031 -127.273438 97.3125 -122.171875 C 95.300781 -117.066406 94.109375 -111.488281 93.734375 -105.4375 L 93.734375 0 L 25.328125 0 L 25.328125 -204.28125 L 93.734375 -204.28125 L 93.734375 -171.390625 C 100.910156 -183.234375 110.164062 -192.144531 121.5 -198.125 C 132.84375 -204.113281 146.007812 -207.109375 161 -207.109375 C 172.207031 -207.109375 182.378906 -205.28125 191.515625 -201.625 C 200.648438 -197.976562 208.492188 -192.785156 215.046875 -186.046875 C 221.597656 -179.304688 226.632812 -171.113281 230.15625 -161.46875 C 233.6875 -151.832031 235.453125 -141.03125 235.453125 -129.0625 L 235.453125 0 L 167.046875 0 Z M 167.046875 -109.796875 "/></g></g></g><g fill="#ff4040" fill-opacity="1"><g transform="translate(106.318359, 676.316141)"><g><path d="M 164.59375 -109.796875 C 164.59375 -121.378906 161.628906 -130.476562 155.703125 -137.09375 C 149.785156 -143.707031 141.722656 -147.015625 131.515625 -147.015625 C 125.722656 -146.890625 120.460938 -145.691406 115.734375 -143.421875 C 111.015625 -141.160156 107.015625 -137.984375 103.734375 -133.890625 C 100.460938 -129.796875 97.945312 -124.972656 96.1875 -119.421875 C 94.425781 -113.878906 93.546875 -107.769531 93.546875 -101.09375 L 93.546875 0 L 25.328125 0 L 25.328125 -204.28125 L 93.546875 -204.28125 L 93.546875 -171.578125 C 100.722656 -183.296875 109.851562 -192.144531 120.9375 -198.125 C 132.019531 -204.113281 144.929688 -207.109375 159.671875 -207.109375 C 176.304688 -207.109375 190.476562 -203.109375 202.1875 -195.109375 C 213.90625 -187.109375 222.410156 -175.925781 227.703125 -161.5625 C 234.378906 -176.5625 243.765625 -187.898438 255.859375 -195.578125 C 267.953125 -203.265625 282.316406 -207.109375 298.953125 -207.109375 C 309.910156 -207.109375 319.890625 -205.28125 328.890625 -201.625 C 337.898438 -197.976562 345.617188 -192.785156 352.046875 -186.046875 C 358.472656 -179.304688 363.445312 -171.113281 366.96875 -161.46875 C 370.5 -151.832031 372.265625 -141.03125 372.265625 -129.0625 L 372.265625 0 L 303.859375 0 L 303.859375 -109.796875 C 303.859375 -121.378906 300.863281 -130.476562 294.875 -137.09375 C 288.894531 -143.707031 280.804688 -147.015625 270.609375 -147.015625 C 264.804688 -146.890625 259.570312 -145.691406 254.90625 -143.421875 C 250.25 -141.160156 246.316406 -137.984375 243.109375 -133.890625 C 239.898438 -129.796875 237.410156 -124.972656 235.640625 -119.421875 C 233.878906 -113.878906 233 -107.769531 233 -101.09375 L 233 0 L 164.59375 0 Z M 164.59375 -109.796875 "/></g></g></g><g fill="#ff4040" fill-opacity="1"><g transform="translate(499.565712, 676.316141)"><g><path d="M 77.484375 -84.09375 C 80.753906 -72.625 86.359375 -63.832031 94.296875 -57.71875 C 102.234375 -51.613281 111.867188 -48.5625 123.203125 -48.5625 C 131.898438 -48.5625 140.375 -50.289062 148.625 -53.75 C 156.875 -57.21875 164.398438 -62.351562 171.203125 -69.15625 L 206.921875 -33.828125 C 196.335938 -22.234375 183.550781 -13.285156 168.5625 -6.984375 C 153.570312 -0.691406 136.5 2.453125 117.34375 2.453125 C 100.59375 2.453125 85.507812 -0.03125 72.09375 -5 C 58.675781 -9.976562 47.273438 -17.003906 37.890625 -26.078125 C 28.503906 -35.148438 21.289062 -46.078125 16.25 -58.859375 C 11.207031 -71.648438 8.6875 -85.851562 8.6875 -101.46875 C 8.6875 -117.34375 11.269531 -131.738281 16.4375 -144.65625 C 21.601562 -157.570312 28.878906 -168.625 38.265625 -177.8125 C 47.648438 -187.007812 58.894531 -194.128906 72 -199.171875 C 85.101562 -204.210938 99.65625 -206.734375 115.65625 -206.734375 C 133.539062 -206.734375 149.222656 -203.863281 162.703125 -198.125 C 176.179688 -192.394531 187.296875 -184.175781 196.046875 -173.46875 C 204.804688 -162.757812 211.171875 -149.878906 215.140625 -134.828125 C 219.109375 -119.773438 220.460938 -102.863281 219.203125 -84.09375 Z M 116.21875 -159.484375 C 110.800781 -159.484375 105.882812 -158.539062 101.46875 -156.65625 C 97.0625 -154.769531 93.15625 -152.09375 89.75 -148.625 C 86.351562 -145.15625 83.488281 -141.023438 81.15625 -136.234375 C 78.832031 -131.453125 77.164062 -126.101562 76.15625 -120.1875 L 153.0625 -120.1875 C 153.0625 -126.101562 152.179688 -131.484375 150.421875 -136.328125 C 148.660156 -141.179688 146.140625 -145.3125 142.859375 -148.71875 C 139.585938 -152.125 135.710938 -154.769531 131.234375 -156.65625 C 126.765625 -158.539062 121.757812 -159.484375 116.21875 -159.484375 Z M 116.21875 -159.484375 "/></g></g></g><g fill="#ff4040" fill-opacity="1"><g transform="translate(727.652993, 676.316141)"><g><path d="M 164.03125 -25.890625 C 156.84375 -16.691406 148.238281 -9.632812 138.21875 -4.71875 C 128.207031 0.1875 116.84375 2.640625 104.125 2.640625 C 89.757812 2.640625 76.6875 0.09375 64.90625 -5 C 53.125 -10.101562 43.078125 -17.285156 34.765625 -26.546875 C 26.453125 -35.804688 20.023438 -46.921875 15.484375 -59.890625 C 10.953125 -72.867188 8.6875 -87.296875 8.6875 -103.171875 C 8.6875 -118.796875 10.921875 -133 15.390625 -145.78125 C 19.867188 -158.570312 26.203125 -169.503906 34.390625 -178.578125 C 42.578125 -187.648438 52.429688 -194.640625 63.953125 -199.546875 C 75.484375 -204.460938 88.304688 -206.921875 102.421875 -206.921875 C 115.523438 -206.921875 127.238281 -204.429688 137.5625 -199.453125 C 147.894531 -194.472656 156.71875 -187.390625 164.03125 -178.203125 L 164.03125 -280.421875 L 232.4375 -280.421875 L 232.4375 0 L 164.03125 0 Z M 120.9375 -152.5 C 114.507812 -152.5 108.617188 -151.238281 103.265625 -148.71875 C 97.910156 -146.195312 93.34375 -142.695312 89.5625 -138.21875 C 85.789062 -133.75 82.832031 -128.363281 80.6875 -122.0625 C 78.550781 -115.769531 77.484375 -108.84375 77.484375 -101.28125 C 77.484375 -93.726562 78.550781 -86.832031 80.6875 -80.59375 C 82.832031 -74.351562 85.789062 -69 89.5625 -64.53125 C 93.34375 -60.0625 97.878906 -56.597656 103.171875 -54.140625 C 108.460938 -51.679688 114.382812 -50.453125 120.9375 -50.453125 C 127.363281 -50.453125 133.222656 -51.679688 138.515625 -54.140625 C 143.804688 -56.597656 148.335938 -60.0625 152.109375 -64.53125 C 155.890625 -69 158.820312 -74.351562 160.90625 -80.59375 C 162.988281 -86.832031 164.03125 -93.726562 164.03125 -101.28125 C 164.03125 -108.84375 162.988281 -115.769531 160.90625 -122.0625 C 158.820312 -128.363281 155.890625 -133.78125 152.109375 -138.3125 C 148.335938 -142.851562 143.804688 -146.351562 138.515625 -148.8125 C 133.222656 -151.269531 127.363281 -152.5 120.9375 -152.5 Z M 120.9375 -152.5 "/></g></g></g><g fill="#ff4040" fill-opacity="1"><g transform="translate(987.298322, 676.316141)"><g><path d="M 25.328125 -204.28125 L 93.546875 -204.28125 L 93.546875 0 L 25.328125 0 Z M 58.765625 -298.578125 C 64.054688 -298.578125 68.90625 -297.691406 73.3125 -295.921875 C 77.726562 -294.160156 81.539062 -291.703125 84.75 -288.546875 C 87.96875 -285.398438 90.457031 -281.625 92.21875 -277.21875 C 93.976562 -272.8125 94.859375 -267.960938 94.859375 -262.671875 C 94.859375 -257.378906 93.976562 -252.554688 92.21875 -248.203125 C 90.457031 -243.859375 87.96875 -240.078125 84.75 -236.859375 C 81.539062 -233.648438 77.726562 -231.164062 73.3125 -229.40625 C 68.90625 -227.644531 64.054688 -226.765625 58.765625 -226.765625 C 53.472656 -226.765625 48.65625 -227.644531 44.3125 -229.40625 C 39.96875 -231.164062 36.1875 -233.648438 32.96875 -236.859375 C 29.757812 -240.078125 27.269531 -243.859375 25.5 -248.203125 C 23.738281 -252.554688 22.859375 -257.378906 22.859375 -262.671875 C 22.859375 -267.960938 23.738281 -272.8125 25.5 -277.21875 C 27.269531 -281.625 29.757812 -285.398438 32.96875 -288.546875 C 36.1875 -291.703125 39.96875 -294.160156 44.3125 -295.921875 C 48.65625 -297.691406 53.472656 -298.578125 58.765625 -298.578125 Z M 58.765625 -298.578125 "/></g></g></g><g fill="#ff4040" fill-opacity="1"><g transform="translate(1106.160682, 676.316141)"><g><path d="M 140.78125 -23.25 C 134.226562 -14.675781 125.816406 -8.148438 115.546875 -3.671875 C 105.285156 0.796875 93.222656 3.03125 79.359375 3.03125 C 68.398438 3.03125 58.601562 1.457031 49.96875 -1.6875 C 41.34375 -4.84375 34.035156 -9.222656 28.046875 -14.828125 C 22.066406 -20.441406 17.503906 -27.148438 14.359375 -34.953125 C 11.210938 -42.765625 9.640625 -51.394531 9.640625 -60.84375 C 9.640625 -80.5 16.316406 -95.742188 29.671875 -106.578125 C 43.023438 -117.410156 62.488281 -122.828125 88.0625 -122.828125 L 140.78125 -122.828125 L 140.78125 -125.09375 C 140.78125 -134.789062 137.566406 -142.316406 131.140625 -147.671875 C 124.710938 -153.023438 115.078125 -155.703125 102.234375 -155.703125 C 93.660156 -155.703125 84.050781 -154.347656 73.40625 -151.640625 C 62.769531 -148.929688 51.90625 -144.867188 40.8125 -139.453125 L 22.484375 -184.8125 C 38.609375 -191.988281 54.414062 -197.5 69.90625 -201.34375 C 85.40625 -205.1875 101.535156 -207.109375 118.296875 -207.109375 C 132.398438 -207.109375 144.992188 -205.4375 156.078125 -202.09375 C 167.171875 -198.757812 176.554688 -193.941406 184.234375 -187.640625 C 191.921875 -181.347656 197.78125 -173.601562 201.8125 -164.40625 C 205.84375 -155.207031 207.859375 -144.75 207.859375 -133.03125 L 208.046875 0 L 140.96875 0 Z M 100.71875 -42.703125 C 105.507812 -42.703125 110.078125 -43.332031 114.421875 -44.59375 C 118.765625 -45.851562 122.695312 -47.648438 126.21875 -49.984375 C 129.75 -52.316406 132.773438 -55.085938 135.296875 -58.296875 C 137.816406 -61.503906 139.644531 -65.0625 140.78125 -68.96875 L 140.78125 -86.921875 L 101.28125 -86.921875 C 92.09375 -86.921875 85.195312 -85.21875 80.59375 -81.8125 C 76 -78.414062 73.703125 -73.066406 73.703125 -65.765625 C 73.703125 -58.578125 76.0625 -52.9375 80.78125 -48.84375 C 85.507812 -44.75 92.15625 -42.703125 100.71875 -42.703125 Z M 100.71875 -42.703125 "/></g></g></g></svg>